<?xml version="1.0" encoding="UTF-8"?><svg id="Layer_1" xmlns="http://www.w3.org/2000/svg" viewBox="0 0 124.53 22.41"><defs><style>.cls-1{fill:none;}.cls-2{fill:#f0484a;}.cls-3{fill:#231f20;}.cls-4{fill:#4353a4;}.cls-5{fill:#1ba7e0;}</style></defs><polygon class="cls-1" points="10.7 12.67 16.25 12.67 16.94 7.05 11.44 7.05 10.7 12.67"/><path class="cls-2" d="m45.08,13.1l.69-5.57h-13.24c-.19,2.75-.81,4.49-1.68,5.57h14.23Z"/><path class="cls-2" d="m31.59,20.11l-.09.97h12.61l.72-6.02h-16.47c2.1.69,3.51,2.58,3.22,5.05Z"/><path class="cls-2" d="m17.49,18.39h-1.95l-.33,2.69h5.32c-.08-1.74-1.17-2.69-3.04-2.69Z"/><path class="cls-2" d="m46.71,0h-28.9l-.16,1.33h7.66c4.57,0,6.96,1.67,7.25,4.39h13.43l.72-5.72Z"/><path class="cls-5" d="m20.51,21.95l-.06.46,10.89-.03.17-1.3h-10.96c.01.27,0,.56-.03.86Z"/><polygon class="cls-5" points="10.7 12.67 11.44 7.05 16.94 7.05 17.64 1.33 2.59 1.33 0 22.41 9.46 22.41 9.99 18.39 15.54 18.39 16.25 12.67 10.7 12.67"/><path class="cls-4" d="m25.3,1.33h-7.66l-.7,5.72h3.72c1.16.01,1.95,1.3,1.56,3.16-.32,1.49-.97,2.39-1.89,2.46h-4.08l-.7,5.72h1.95c1.88,0,2.96.95,3.04,2.69h10.96l.09-.97c.29-2.47-1.12-4.36-3.22-5.05h-1.89l.24-1.96h4.13c.88-1.08,1.5-2.82,1.68-5.57h-5.12l.21-1.81h4.93c-.29-2.72-2.68-4.39-7.25-4.39Z"/><path class="cls-3" d="m54.68,6.76c.32,0,.61.05.86.16.26.1.48.24.66.42.18.18.32.39.42.62.1.24.15.49.15.77,0,.42-.09.78-.26,1.09-.18.31-.47.54-.87.7v.02c.19.05.35.13.48.25s.23.24.31.39c.08.15.14.32.17.5.04.18.06.36.08.54,0,.11.01.25.02.4,0,.15.02.31.04.47.02.16.04.31.08.46s.09.26.17.37h-1.57c-.09-.23-.14-.5-.16-.81-.02-.31-.05-.61-.09-.9-.05-.37-.17-.65-.34-.82-.17-.17-.46-.26-.85-.26h-1.57v2.79h-1.57v-7.14h3.85Zm-.56,3.23c.36,0,.63-.08.81-.24s.27-.42.27-.78-.09-.6-.27-.75c-.18-.16-.45-.23-.81-.23h-1.72v2.01h1.72Z"/><path class="cls-3" d="m57.93,10.19c.13-.34.31-.62.54-.86.23-.24.51-.42.84-.55.33-.13.69-.2,1.1-.2s.78.07,1.1.2c.33.13.61.31.85.55.23.24.41.52.54.86.13.34.19.71.19,1.12s-.06.79-.19,1.12c-.13.33-.31.62-.54.85-.23.24-.52.42-.85.54-.33.13-.7.19-1.1.19s-.77-.06-1.1-.19c-.33-.13-.61-.31-.84-.54-.23-.24-.41-.52-.54-.85-.13-.33-.19-.71-.19-1.12s.06-.79.19-1.12Zm1.29,1.73c.04.2.11.37.21.53.1.16.23.28.39.38.16.09.36.14.6.14s.44-.05.6-.14c.16-.09.29-.22.39-.38.1-.16.17-.33.21-.53.04-.2.06-.4.06-.6s-.02-.41-.06-.61-.11-.38-.21-.53c-.1-.15-.23-.28-.39-.38-.16-.1-.36-.14-.6-.14s-.44.05-.6.14c-.16.1-.29.22-.39.38-.1.15-.17.33-.21.53s-.06.4-.06.61.02.41.06.6Z"/><path class="cls-3" d="m66.85,8.73v.95h-1.04v2.56c0,.24.04.4.12.48.08.08.24.12.48.12.08,0,.16,0,.23,0s.14-.02.21-.03v1.1c-.12.02-.25.03-.4.04-.15,0-.29,0-.43,0-.22,0-.43-.01-.62-.04-.2-.03-.37-.09-.52-.17-.15-.09-.27-.21-.35-.37-.09-.16-.13-.37-.13-.63v-3.05h-.86v-.95h.86v-1.55h1.42v1.55h1.04Z"/><path class="cls-3" d="m68.88,8.73v.96h.02c.07-.16.16-.31.27-.45.11-.14.24-.25.39-.35s.3-.17.47-.23c.17-.05.34-.08.52-.08.09,0,.2.02.31.05v1.32c-.07-.01-.15-.02-.24-.04-.09,0-.18-.01-.27-.01-.26,0-.48.04-.66.13s-.33.21-.43.36c-.11.15-.19.32-.24.52s-.07.42-.07.65v2.33h-1.42v-5.17h1.35Z"/><path class="cls-3" d="m74.92,13.9v-.72h-.03c-.18.3-.41.52-.7.65-.29.13-.58.2-.88.2-.38,0-.69-.05-.93-.15-.24-.1-.44-.24-.58-.42-.14-.18-.24-.41-.29-.67s-.08-.55-.08-.88v-3.18h1.42v2.92c0,.43.07.75.2.96.13.21.37.31.71.31.39,0,.67-.12.84-.34.17-.23.26-.61.26-1.13v-2.71h1.42v5.17h-1.35Z"/><path class="cls-3" d="m79.82,9.66c-.23,0-.42.05-.57.16s-.28.24-.38.4c-.1.16-.17.34-.21.54-.04.2-.06.39-.06.58s.02.38.06.57.11.37.2.53c.09.16.21.28.37.38.15.1.34.15.56.15.34,0,.6-.09.79-.28.18-.19.3-.45.34-.77h1.37c-.09.69-.36,1.21-.8,1.57-.44.36-1,.54-1.69.54-.39,0-.74-.07-1.07-.2s-.6-.31-.83-.54-.4-.51-.53-.83c-.13-.32-.19-.68-.19-1.06s.06-.77.17-1.12c.12-.34.29-.64.51-.89s.5-.44.83-.58c.33-.14.7-.21,1.12-.21.31,0,.6.04.88.12.28.08.54.2.76.37.22.16.4.37.54.61.14.24.22.53.24.86h-1.39c-.09-.59-.44-.89-1.05-.89Z"/><path class="cls-3" d="m84.64,6.76v3.83l1.79-1.86h1.68l-1.95,1.9,2.17,3.27h-1.72l-1.42-2.31-.55.53v1.78h-1.42v-7.14h1.42Z"/><path class="cls-3" d="m94.55,6.76v1.32h-3.77v1.53h3.46v1.22h-3.46v1.75h3.85v1.32h-5.42v-7.14h5.34Z"/><path class="cls-3" d="m97,6.76v7.14h-1.42v-7.14h1.42Z"/><path class="cls-3" d="m99.64,12.66c.21.21.52.31.92.31.29,0,.53-.07.74-.21.21-.14.33-.29.38-.46h1.25c-.2.62-.51,1.06-.92,1.33-.41.27-.91.4-1.5.4-.41,0-.77-.07-1.1-.2-.33-.13-.6-.31-.83-.55s-.4-.53-.52-.86c-.12-.33-.19-.7-.19-1.1s.06-.75.19-1.08c.13-.33.31-.62.54-.87s.51-.43.83-.58c.32-.14.68-.21,1.08-.21.44,0,.82.08,1.15.25.33.17.59.4.8.69.21.29.36.61.46.98.09.37.13.75.1,1.15h-3.73c.02.46.14.79.35,1Zm1.6-2.72c-.17-.19-.43-.28-.77-.28-.23,0-.42.04-.57.12-.15.08-.27.17-.36.29-.09.11-.15.23-.19.36-.04.13-.06.24-.07.34h2.31c-.07-.36-.19-.63-.36-.82Z"/><path class="cls-3" d="m106.33,9.66c-.23,0-.42.05-.57.16s-.28.24-.38.4c-.1.16-.17.34-.21.54-.04.2-.06.39-.06.58s.02.38.06.57.11.37.2.53c.09.16.21.28.37.38.15.1.34.15.56.15.34,0,.6-.09.79-.28.18-.19.3-.45.34-.77h1.37c-.09.69-.36,1.21-.8,1.57-.44.36-1,.54-1.69.54-.39,0-.74-.07-1.07-.2s-.6-.31-.83-.54-.4-.51-.53-.83c-.13-.32-.19-.68-.19-1.06s.06-.77.17-1.12c.12-.34.29-.64.51-.89s.5-.44.83-.58c.33-.14.7-.21,1.12-.21.31,0,.6.04.88.12.28.08.54.2.76.37.22.16.4.37.54.61.14.24.22.53.24.86h-1.39c-.09-.59-.44-.89-1.05-.89Z"/><path class="cls-3" d="m112.44,8.73v.95h-1.04v2.56c0,.24.04.4.12.48.08.08.24.12.48.12.08,0,.16,0,.23,0s.14-.02.21-.03v1.1c-.12.02-.25.03-.4.04-.15,0-.29,0-.43,0-.22,0-.43-.01-.62-.04-.2-.03-.37-.09-.52-.17-.15-.09-.27-.21-.36-.37-.09-.16-.13-.37-.13-.63v-3.05h-.86v-.95h.86v-1.55h1.42v1.55h1.04Z"/><path class="cls-3" d="m114.47,8.73v.96h.02c.07-.16.16-.31.27-.45s.24-.25.39-.35c.15-.1.3-.17.47-.23.17-.05.34-.08.52-.08.09,0,.2.02.31.05v1.32c-.07-.01-.15-.02-.24-.04-.09,0-.18-.01-.27-.01-.26,0-.48.04-.66.13-.18.09-.33.21-.44.36-.11.15-.19.32-.24.52-.05.2-.07.42-.07.65v2.33h-1.42v-5.17h1.35Z"/><path class="cls-3" d="m117.05,7.93v-1.17h1.42v1.17h-1.42Zm1.42.8v5.17h-1.42v-5.17h1.42Z"/><path class="cls-3" d="m122.06,9.66c-.23,0-.42.05-.57.16s-.28.24-.38.4c-.1.16-.17.34-.21.54-.04.2-.06.39-.06.58s.02.38.06.57.1.37.2.53c.09.16.21.28.36.38.15.1.34.15.56.15.34,0,.6-.09.79-.28.18-.19.3-.45.34-.77h1.37c-.09.69-.36,1.21-.8,1.57-.44.36-1,.54-1.69.54-.39,0-.74-.07-1.07-.2s-.6-.31-.82-.54c-.23-.23-.4-.51-.53-.83s-.19-.68-.19-1.06.06-.77.18-1.12c.12-.34.29-.64.51-.89s.5-.44.83-.58c.33-.14.7-.21,1.12-.21.31,0,.6.04.88.12s.54.2.76.37.41.37.54.61c.14.24.22.53.24.86h-1.39c-.09-.59-.44-.89-1.05-.89Z"/></svg>