<?xml version="1.0" encoding="utf-8"?>
<!-- Generator: Adobe Illustrator 27.5.0, SVG Export Plug-In . SVG Version: 6.00 Build 0)  -->
<svg version="1.1" id="Layer_1" xmlns="http://www.w3.org/2000/svg" xmlns:xlink="http://www.w3.org/1999/xlink" x="0px" y="0px"
	 viewBox="0 0 124.5 22.4" style="enable-background:new 0 0 124.5 22.4;" xml:space="preserve">
<style type="text/css">
	.st0{fill:none;}
	.st1{fill:#FFBE1D;}
	.st2{fill:#1BA7E0;}
	.st3{fill:#F24080;}
	.st4{fill:#FFFFFF;}
</style>
<polygon class="st0" points="10.7,12.7 16.2,12.7 16.9,7.1 11.4,7.1 "/>
<path class="st1" d="M45.1,13.1l0.7-5.6H32.5c-0.2,2.8-0.8,4.5-1.7,5.6C30.8,13.1,45.1,13.1,45.1,13.1z"/>
<path class="st1" d="M31.6,20.1l-0.1,1h12.6l0.7-6H28.4C30.5,15.7,31.9,17.6,31.6,20.1L31.6,20.1z"/>
<path class="st1" d="M17.5,18.4h-1.9l-0.3,2.7h5.3C20.5,19.3,19.4,18.4,17.5,18.4z"/>
<path class="st1" d="M46.7,0H17.8l-0.2,1.3h7.7c4.6,0,7,1.7,7.2,4.4H46L46.7,0z"/>
<path class="st2" d="M20.5,22l-0.1,0.5l10.9,0l0.2-1.3h-11C20.6,21.4,20.5,21.6,20.5,22L20.5,22z"/>
<polygon class="st2" points="10.7,12.7 11.4,7.1 16.9,7.1 17.6,1.3 2.6,1.3 0,22.4 9.5,22.4 10,18.4 15.5,18.4 16.2,12.7 "/>
<path class="st3" d="M25.3,1.3h-7.7L16.9,7h3.7c1.2,0,2,1.3,1.6,3.2c-0.3,1.5-1,2.4-1.9,2.5h-4.1l-0.7,5.7h1.9c1.9,0,3,1,3,2.7h11
	l0.1-1c0.3-2.5-1.1-4.4-3.2-5.1h-1.9l0.2-2h4.1c0.9-1.1,1.5-2.8,1.7-5.6h-5.1l0.2-1.8h4.9C32.3,3,29.9,1.3,25.3,1.3z"/>
<path class="st4" d="M54.7,6.8c0.3,0,0.6,0.1,0.9,0.2C55.8,7,56,7.2,56.2,7.3c0.2,0.2,0.3,0.4,0.4,0.6c0.1,0.2,0.2,0.5,0.2,0.8
	c0,0.4-0.1,0.8-0.3,1.1c-0.2,0.3-0.5,0.5-0.9,0.7v0c0.2,0.1,0.3,0.1,0.5,0.2s0.2,0.2,0.3,0.4c0.1,0.1,0.1,0.3,0.2,0.5
	c0,0.2,0.1,0.4,0.1,0.5c0,0.1,0,0.2,0,0.4c0,0.1,0,0.3,0,0.5s0,0.3,0.1,0.5s0.1,0.3,0.2,0.4h-1.6c-0.1-0.2-0.1-0.5-0.2-0.8
	s0-0.6-0.1-0.9c0-0.4-0.2-0.6-0.3-0.8c-0.2-0.2-0.5-0.3-0.8-0.3h-1.6v2.8h-1.6V6.8L54.7,6.8L54.7,6.8z M54.1,10
	c0.4,0,0.6-0.1,0.8-0.2s0.3-0.4,0.3-0.8s-0.1-0.6-0.3-0.8C54.8,8.1,54.5,8,54.1,8h-1.7v2L54.1,10L54.1,10z"/>
<path class="st4" d="M57.9,10.2c0.1-0.3,0.3-0.6,0.5-0.9s0.5-0.4,0.8-0.6s0.7-0.2,1.1-0.2s0.8,0.1,1.1,0.2c0.3,0.1,0.6,0.3,0.8,0.6
	c0.2,0.2,0.4,0.5,0.5,0.9c0.1,0.3,0.2,0.7,0.2,1.1s-0.1,0.8-0.2,1.1c-0.1,0.3-0.3,0.6-0.5,0.9c-0.2,0.2-0.5,0.4-0.8,0.5
	c-0.3,0.1-0.7,0.2-1.1,0.2s-0.8-0.1-1.1-0.2c-0.3-0.1-0.6-0.3-0.8-0.5c-0.2-0.2-0.4-0.5-0.5-0.9c-0.1-0.3-0.2-0.7-0.2-1.1
	S57.8,10.5,57.9,10.2z M59.2,11.9c0,0.2,0.1,0.4,0.2,0.5s0.2,0.3,0.4,0.4c0.2,0.1,0.4,0.1,0.6,0.1s0.4-0.1,0.6-0.1s0.3-0.2,0.4-0.4
	s0.2-0.3,0.2-0.5s0.1-0.4,0.1-0.6s0-0.4-0.1-0.6s-0.1-0.4-0.2-0.5S61.2,9.9,61,9.8s-0.4-0.1-0.6-0.1S60,9.7,59.8,9.8
	c-0.2,0.1-0.3,0.2-0.4,0.4c-0.1,0.1-0.2,0.3-0.2,0.5s-0.1,0.4-0.1,0.6S59.2,11.7,59.2,11.9z"/>
<path class="st4" d="M66.8,8.7v0.9h-1v2.6c0,0.2,0,0.4,0.1,0.5s0.2,0.1,0.5,0.1c0.1,0,0.2,0,0.2,0s0.1,0,0.2,0v1.1
	c-0.1,0-0.2,0-0.4,0c-0.2,0-0.3,0-0.4,0c-0.2,0-0.4,0-0.6,0c-0.2,0-0.4-0.1-0.5-0.2c-0.2-0.1-0.3-0.2-0.3-0.4
	c-0.1-0.2-0.1-0.4-0.1-0.6V9.7h-0.9V8.7h0.9V7.2h1.4v1.6L66.8,8.7L66.8,8.7z"/>
<path class="st4" d="M68.9,8.7v1h0c0.1-0.2,0.2-0.3,0.3-0.4c0.1-0.1,0.2-0.2,0.4-0.4s0.3-0.2,0.5-0.2c0.2-0.1,0.3-0.1,0.5-0.1
	c0.1,0,0.2,0,0.3,0.1v1.3c-0.1,0-0.2,0-0.2,0c-0.1,0-0.2,0-0.3,0c-0.3,0-0.5,0-0.7,0.1s-0.3,0.2-0.4,0.4c-0.1,0.1-0.2,0.3-0.2,0.5
	s-0.1,0.4-0.1,0.6v2.3h-1.4V8.7L68.9,8.7L68.9,8.7z"/>
<path class="st4" d="M74.9,13.9v-0.7h0c-0.2,0.3-0.4,0.5-0.7,0.6C73.9,14,73.6,14,73.3,14c-0.4,0-0.7-0.1-0.9-0.1
	c-0.2-0.1-0.4-0.2-0.6-0.4s-0.2-0.4-0.3-0.7s-0.1-0.6-0.1-0.9V8.7h1.4v2.9c0,0.4,0.1,0.8,0.2,1s0.4,0.3,0.7,0.3
	c0.4,0,0.7-0.1,0.8-0.3c0.2-0.2,0.3-0.6,0.3-1.1V8.7h1.4v5.2L74.9,13.9L74.9,13.9z"/>
<path class="st4" d="M79.8,9.7c-0.2,0-0.4,0.1-0.6,0.2s-0.3,0.2-0.4,0.4s-0.2,0.3-0.2,0.5s-0.1,0.4-0.1,0.6s0,0.4,0.1,0.6
	s0.1,0.4,0.2,0.5s0.2,0.3,0.4,0.4c0.2,0.1,0.3,0.1,0.6,0.1c0.3,0,0.6-0.1,0.8-0.3c0.2-0.2,0.3-0.4,0.3-0.8h1.4
	c-0.1,0.7-0.4,1.2-0.8,1.6s-1,0.5-1.7,0.5c-0.4,0-0.7-0.1-1.1-0.2s-0.6-0.3-0.8-0.5s-0.4-0.5-0.5-0.8s-0.2-0.7-0.2-1.1
	s0.1-0.8,0.2-1.1c0.1-0.3,0.3-0.6,0.5-0.9s0.5-0.4,0.8-0.6s0.7-0.2,1.1-0.2c0.3,0,0.6,0,0.9,0.1s0.5,0.2,0.8,0.4
	c0.2,0.2,0.4,0.4,0.5,0.6s0.2,0.5,0.2,0.9h-1.4C80.8,10,80.4,9.7,79.8,9.7L79.8,9.7z"/>
<path class="st4" d="M84.6,6.8v3.8l1.8-1.9h1.7l-1.9,1.9l2.2,3.3h-1.7l-1.4-2.3l-0.6,0.5v1.8h-1.4V6.8C83.2,6.8,84.6,6.8,84.6,6.8z"
	/>
<path class="st4" d="M94.6,6.8v1.3h-3.8v1.5h3.5v1.2h-3.5v1.8h3.8v1.3h-5.4V6.8C89.2,6.8,94.6,6.8,94.6,6.8z"/>
<path class="st4" d="M97,6.8v7.1h-1.4V6.8C95.6,6.8,97,6.8,97,6.8z"/>
<path class="st4" d="M99.6,12.7c0.2,0.2,0.5,0.3,0.9,0.3c0.3,0,0.5-0.1,0.7-0.2s0.3-0.3,0.4-0.5h1.2c-0.2,0.6-0.5,1.1-0.9,1.3
	c-0.4,0.3-0.9,0.4-1.5,0.4c-0.4,0-0.8-0.1-1.1-0.2s-0.6-0.3-0.8-0.6s-0.4-0.5-0.5-0.9c-0.1-0.3-0.2-0.7-0.2-1.1s0.1-0.8,0.2-1.1
	c0.1-0.3,0.3-0.6,0.5-0.9s0.5-0.4,0.8-0.6c0.3-0.1,0.7-0.2,1.1-0.2c0.4,0,0.8,0.1,1.2,0.2s0.6,0.4,0.8,0.7c0.2,0.3,0.4,0.6,0.5,1
	c0.1,0.4,0.1,0.8,0.1,1.1h-3.7C99.3,12.1,99.4,12.4,99.6,12.7L99.6,12.7z M101.2,9.9c-0.2-0.2-0.4-0.3-0.8-0.3c-0.2,0-0.4,0-0.6,0.1
	s-0.3,0.2-0.4,0.3c-0.1,0.1-0.2,0.2-0.2,0.4s-0.1,0.2-0.1,0.3h2.3C101.5,10.4,101.4,10.1,101.2,9.9L101.2,9.9z"/>
<path class="st4" d="M106.3,9.7c-0.2,0-0.4,0.1-0.6,0.2s-0.3,0.2-0.4,0.4s-0.2,0.3-0.2,0.5s-0.1,0.4-0.1,0.6s0,0.4,0.1,0.6
	s0.1,0.4,0.2,0.5s0.2,0.3,0.4,0.4c0.2,0.1,0.3,0.1,0.6,0.1c0.3,0,0.6-0.1,0.8-0.3c0.2-0.2,0.3-0.4,0.3-0.8h1.4
	c-0.1,0.7-0.4,1.2-0.8,1.6s-1,0.5-1.7,0.5c-0.4,0-0.7-0.1-1.1-0.2s-0.6-0.3-0.8-0.5s-0.4-0.5-0.5-0.8s-0.2-0.7-0.2-1.1
	s0.1-0.8,0.2-1.1c0.1-0.3,0.3-0.6,0.5-0.9s0.5-0.4,0.8-0.6s0.7-0.2,1.1-0.2c0.3,0,0.6,0,0.9,0.1s0.5,0.2,0.8,0.4
	c0.2,0.2,0.4,0.4,0.5,0.6s0.2,0.5,0.2,0.9h-1.4C107.3,10,106.9,9.7,106.3,9.7L106.3,9.7z"/>
<path class="st4" d="M112.4,8.7v0.9h-1v2.6c0,0.2,0,0.4,0.1,0.5s0.2,0.1,0.5,0.1c0.1,0,0.2,0,0.2,0s0.1,0,0.2,0v1.1
	c-0.1,0-0.2,0-0.4,0c-0.2,0-0.3,0-0.4,0c-0.2,0-0.4,0-0.6,0c-0.2,0-0.4-0.1-0.5-0.2c-0.2-0.1-0.3-0.2-0.4-0.4
	c-0.1-0.2-0.1-0.4-0.1-0.6V9.7h-0.9V8.7h0.9V7.2h1.4v1.6L112.4,8.7L112.4,8.7z"/>
<path class="st4" d="M114.5,8.7v1h0c0.1-0.2,0.2-0.3,0.3-0.4s0.2-0.2,0.4-0.4s0.3-0.2,0.5-0.2c0.2-0.1,0.3-0.1,0.5-0.1
	c0.1,0,0.2,0,0.3,0.1v1.3c-0.1,0-0.2,0-0.2,0c-0.1,0-0.2,0-0.3,0c-0.3,0-0.5,0-0.7,0.1s-0.3,0.2-0.4,0.4s-0.2,0.3-0.2,0.5
	c-0.1,0.2-0.1,0.4-0.1,0.6v2.3h-1.4V8.7L114.5,8.7L114.5,8.7z"/>
<path class="st4" d="M117.1,7.9V6.8h1.4v1.2H117.1z M118.5,8.7v5.2h-1.4V8.7H118.5z"/>
<path class="st4" d="M122.1,9.7c-0.2,0-0.4,0.1-0.6,0.2s-0.3,0.2-0.4,0.4s-0.2,0.3-0.2,0.5s-0.1,0.4-0.1,0.6s0,0.4,0.1,0.6
	s0.1,0.4,0.2,0.5c0.1,0.2,0.2,0.3,0.4,0.4s0.3,0.1,0.6,0.1c0.3,0,0.6-0.1,0.8-0.3c0.2-0.2,0.3-0.4,0.3-0.8h1.4
	c-0.1,0.7-0.4,1.2-0.8,1.6s-1,0.5-1.7,0.5c-0.4,0-0.7-0.1-1.1-0.2s-0.6-0.3-0.8-0.5c-0.2-0.2-0.4-0.5-0.5-0.8s-0.2-0.7-0.2-1.1
	s0.1-0.8,0.2-1.1c0.1-0.3,0.3-0.6,0.5-0.9s0.5-0.4,0.8-0.6s0.7-0.2,1.1-0.2c0.3,0,0.6,0,0.9,0.1s0.5,0.2,0.8,0.4s0.4,0.4,0.5,0.6
	c0.1,0.2,0.2,0.5,0.2,0.9h-1.4C123,10,122.6,9.7,122.1,9.7L122.1,9.7z"/>
</svg>
